<svg style="position: absolute; width: 0; height: 0; overflow: hidden;" version="1.1" xmlns="http://www.w3.org/2000/svg" xmlns:xlink="http://www.w3.org/1999/xlink">
    <defs>
        <symbol id="icon-facebook" viewBox="0 0 24 24">
            <title>facebook</title>
            <path d="M13.397,20.997v-8.196h2.765l0.411-3.209h-3.176V7.548c0-0.926,0.258-1.56,1.587-1.56h1.684V3.127	C15.849,3.039,15.025,2.997,14.201,3c-2.444,0-4.122,1.492-4.122,4.231v2.355H7.332v3.209h2.753v8.202H13.397z" />
        </symbol>
        <symbol id="icon-youtube" viewBox="0 0 24 24">
            <title>youtube</title>
            <path d="M21.593,7.203c-0.23-0.858-0.905-1.535-1.762-1.766C18.265,5.007,12,5,12,5S5.736,4.993,4.169,5.404	c-0.84,0.229-1.534,0.921-1.766,1.778c-0.413,1.566-0.417,4.814-0.417,4.814s-0.004,3.264,0.406,4.814	c0.23,0.857,0.905,1.534,1.763,1.765c1.582,0.43,7.83,0.437,7.83,0.437s6.265,0.007,7.831-0.403c0.856-0.23,1.534-0.906,1.767-1.763	C21.997,15.281,22,12.034,22,12.034S22.02,8.769,21.593,7.203z M9.996,15.005l0.005-6l5.207,3.005L9.996,15.005z" />
        </symbol>
        <symbol id="icon-twitter" viewBox="0 0 24 24">
            <title>twitter</title>
            <path d="M19.633,7.997c0.013,0.175,0.013,0.349,0.013,0.523c0,5.325-4.053,11.461-11.46,11.461c-2.282,0-4.402-0.661-6.186-1.809	c0.324,0.037,0.636,0.05,0.973,0.05c1.883,0,3.616-0.636,5.001-1.721c-1.771-0.037-3.255-1.197-3.767-2.793	c0.249,0.037,0.499,0.062,0.761,0.062c0.361,0,0.724-0.05,1.061-0.137c-1.847-0.374-3.23-1.995-3.23-3.953v-0.05	c0.537,0.299,1.16,0.486,1.82,0.511C3.534,9.419,2.823,8.184,2.823,6.787c0-0.748,0.199-1.434,0.548-2.032	c1.983,2.443,4.964,4.04,8.306,4.215c-0.062-0.3-0.1-0.611-0.1-0.923c0-2.22,1.796-4.028,4.028-4.028	c1.16,0,2.207,0.486,2.943,1.272c0.91-0.175,1.782-0.512,2.556-0.973c-0.299,0.935-0.936,1.721-1.771,2.22	c0.811-0.088,1.597-0.312,2.319-0.624C21.104,6.712,20.419,7.423,19.633,7.997z" />
        </symbol>
        <symbol id="icon-linkedin" viewBox="0 0 24 24">
            <title>linkedin</title>
            <circle cx="4.983" cy="5.009" r="2.188" />
            <path d="M9.237 8.855v12.139h3.769v-6.003c0-1.584.298-3.118 2.262-3.118 1.937 0 1.961 1.811 1.961 3.218v5.904H21v-6.657c0-3.27-.704-5.783-4.526-5.783-1.835 0-3.065 1.007-3.568 1.96h-.051v-1.66H9.237zM3.095 8.855H6.87V20.994H3.095z" />
        </symbol>
        <symbol id="icon-mail" viewBox="0 0 24 24">
            <title>mail</title>
            <path d="M20,4H4C2.896,4,2,4.896,2,6v12c0,1.104,0.896,2,2,2h16c1.104,0,2-0.896,2-2V6C22,4.896,21.104,4,20,4z M20,8.7l-8,5.334 L4,8.7V6.297l8,5.333l8-5.333V8.7z"/>
        </symbol>
        <symbol id="icon-phone" viewBox="0 0 24 24">
            <title>phone</title>
        <path d="M20.487,17.14l-4.065-3.696c-0.399-0.363-1.015-0.344-1.391,0.043l-2.393,2.461c-0.576-0.11-1.734-0.471-2.926-1.66	c-1.192-1.193-1.553-2.354-1.66-2.926l2.459-2.394c0.388-0.376,0.406-0.991,0.043-1.391L6.859,3.513	c-0.363-0.401-0.98-0.439-1.391-0.087l-2.17,1.861C3.125,5.461,3.022,5.691,3.008,5.936c-0.015,0.25-0.301,6.172,4.291,10.766	C11.305,20.707,16.323,21,17.705,21c0.202,0,0.326-0.006,0.359-0.008c0.245-0.014,0.475-0.117,0.648-0.291l1.86-2.171	C20.926,18.119,20.887,17.503,20.487,17.14z"/>
        <symbol id="icon-globe" viewBox="0 0 24 24">
            <title>globe</title>
            <path d="M12,2C6.486,2,2,6.486,2,12s4.486,10,10,10s10-4.486,10-10S17.514,2,12,2z M19.931,11h-2.764 c-0.116-2.165-0.73-4.3-1.792-6.243C17.813,5.898,19.582,8.228,19.931,11z M12.53,4.027c1.035,1.364,2.427,3.78,2.627,6.973H9.03 c0.139-2.596,0.994-5.028,2.451-6.974C11.653,4.016,11.825,4,12,4C12.179,4,12.354,4.016,12.53,4.027z M8.688,4.727 C7.704,6.618,7.136,8.762,7.03,11H4.069C4.421,8.204,6.217,5.857,8.688,4.727z M4.069,13h2.974c0.136,2.379,0.665,4.478,1.556,6.23 C6.174,18.084,4.416,15.762,4.069,13z M11.45,19.973C10.049,18.275,9.222,15.896,9.041,13h6.113 c-0.208,2.773-1.117,5.196-2.603,6.972C12.369,19.984,12.187,20,12,20C11.814,20,11.633,19.984,11.45,19.973z M15.461,19.201 c0.955-1.794,1.538-3.901,1.691-6.201h2.778C19.587,15.739,17.854,18.047,15.461,19.201z"/>
        </symbol>
    </defs>
</svg>





